<?xml version="1.0" standalone="no"?>
<!DOCTYPE svg PUBLIC "-//W3C//DTD SVG 20010904//EN"
 "http://www.w3.org/TR/2001/REC-SVG-20010904/DTD/svg10.dtd">
<svg version="1.0" xmlns="http://www.w3.org/2000/svg"
 width="260.000000pt" height="260.000000pt" viewBox="0 0 260.000000 260.000000"
 preserveAspectRatio="xMidYMid meet">
<metadata>
Created by potrace 1.14, written by Peter Selinger 2001-2017
</metadata>
<g transform="translate(0.000000,260.000000) scale(0.100000,-0.100000)"
fill="#000000" stroke="none">
<path d="M0 1300 l0 -1300 1300 0 1300 0 0 1300 0 1300 -1300 0 -1300 0 0
-1300z m1002 688 c1 -2 5 -132 8 -290 l5 -288 63 77 c57 72 62 82 62 128 0 49
3 54 121 203 l120 152 49 0 c27 0 52 5 55 10 4 6 79 10 191 10 l185 0 -12 -22
c-7 -13 -139 -167 -295 -344 l-282 -321 304 -322 c167 -177 304 -326 304 -331
0 -6 -54 -11 -127 -12 -112 -1 -119 -2 -58 -8 49 -5 12 -7 -121 -8 l-192 -2
-121 131 -121 132 0 66 -1 66 -64 70 -64 70 -1 -257 0 -258 -97 -2 c-78 -1
-89 -2 -53 -8 29 -4 -14 -8 -117 -8 l-163 -2 0 675 0 675 50 0 c28 0 50 5 50
10 0 8 315 16 322 8z"/>
</g>
</svg>
